<?xml version="1.0" encoding="UTF-8"?>
<!DOCTYPE svg PUBLIC "-//W3C//DTD SVG 1.1//EN" "http://www.w3.org/Graphics/SVG/1.1/DTD/svg11.dtd">
<!-- Creator: CorelDRAW X6 -->
<svg xmlns="http://www.w3.org/2000/svg" xml:space="preserve" width="60.1458mm" height="60.2508mm" version="1.1" style="shape-rendering:geometricPrecision; text-rendering:geometricPrecision; image-rendering:optimizeQuality; fill-rule:evenodd; clip-rule:evenodd"
viewBox="0 0 6015 6025"
 xmlns:xlink="http://www.w3.org/1999/xlink">
 <defs>
  <style type="text/css">
   <![CDATA[
    .fil1 {fill:none;fill-rule:nonzero}
    .fil3 {fill:black}
    .fil5 {fill:#898989}
    .fil2 {fill:#E2E1DD}
    .fil4 {fill:#FEFEFE}
    .fil6 {fill:white}
    .fil7 {fill:#9D9E9E;fill-rule:nonzero}
    .fil0 {fill:#E2E1DD;fill-rule:nonzero}
   ]]>
  </style>
 </defs>
 <g id="Слой_x0020_1">
  <metadata id="CorelCorpID_0Corel-Layer"/>
  <g id="_288739520">
   <path class="fil0" d="M2834 5467l31 -327 179 21 -63 864 -200 -21c-74,0 -137,-21 -169,-42 -42,-21 -63,-63 -52,-127l21 -242c0,-52 21,-95 52,-116 32,-21 106,-21 201,-10zm-74 158l-11 210c-10,32 11,43 53,53l21 -305c-42,0 -63,10 -63,42zm-243 -369l-179 527c-31,116 -115,137 -263,95 -126,-43 -179,-127 -147,-232l179 -527c21,-42 52,-74 95,-84 42,-21 105,-11 158,10 136,43 189,116 158,211l-1 0zm-231 -84l-190 558c0,21 0,32 21,32 21,10 32,0 42,-11l190 -558c0,-21 0,-32 -21,-32 -21,-10 -32,-10 -42,11zm-822 63l148 95 -85 147c0,11 0,21 11,32 21,10 32,0 42,-11l295 -516c10,-10 0,-21 -11,-31 -21,-11 -31,-11 -31,0l-106 189 -158 -84 116 -190c21,-42 53,-63 95,-63 53,0 95,11 137,42 126,74 169,148 116,243l-274 484c-63,95 -147,106 -274,32 -116,-63 -147,-137 -95,-232l74 -137 0 0zm242 -516l-600 621 -116 -105 274 -284 -358 200 -148 -137 590 -632 116 105 -316 337 411 -242 147 137 0 0zm-389 -379l-727 463 -84 -137 337 -210 -401 116 -115 -180 737 -463 84 137 -390 242 453 -137 106 169 0 0zm-1096 210c84,-42 158,-21 211,64 63,94 53,168 -21,231l-53 -84c32,-32 32,-63 11,-105 -21,-32 -64,-42 -95,-32l-53 -74 0 0zm158 -895l53 169 -158 52c-11,11 -21,21 -11,32 0,21 11,32 32,21l569 -190c10,-10 10,-21 10,-31 -10,-21 -21,-21 -31,-21l-200 73 -64 -168 211 -74c42,-10 74,0 116,32 31,31 63,63 74,116 52,137 21,221 -74,252l-527 180c-105,42 -179,-11 -232,-148 -42,-126 -10,-211 85,-242l147 -53 0 0zm485 -716l21 200 -337 137 337 -32 21 179 -864 74 -21 -179 306 -32 -222 -42c-63,-21 -94,-52 -105,-116 0,-42 0,-63 0,-84l116 -10c0,31 31,52 74,63l210 52 464 -210 0 0zm0 -32l-853 -158 21 -158 389 74 -358 -190 32 -200 853 158 -32 148 -453 -74 432 200 -31 200 0 0zm242 -874l-137 348 -811 -316 137 -348 105 42 -63 169 211 84 63 -148 95 32 -53 148 285 115 63 -168 105 42 0 0zm137 -242l-653 -569 232 -263 84 73 -105 127 158 137c52,-74 105,-116 147,-127 32,-21 74,0 126,42l179 158c43,32 64,64 64,106 0,42 -32,95 -95,168l-137 148 0 0zm42 -295l-158 -137c-32,-21 -53,-21 -74,10l-10 11 232 189c31,-31 31,-52 10,-73zm706 -369l-158 105 -158 -168 -63 42 105 211 -158 116 -379 -790 189 -148 622 632 0 0zm-400 -158l-169 -190 126 222 43 -32zm842 -21l-179 74 -147 -390 -53 21 158 390 -179 63 -316 -801 169 -73 136 326 43 -21 -127 -326 179 -64 316 801 0 0zm474 -74l-189 32 -43 -421 -52 10 52 411 -189 32 -116 -864 190 -21 42 337 52 0 -42 -348 190 -21 105 853 0 0zm717 74l-190 -32 105 -853 190 21 -105 864 0 0zm-664 -84l116 -864 179 21 -32 316c84,11 158,32 190,53 31,21 42,63 31,137l-31 231c-11,64 -32,95 -63,116 -43,21 -106,21 -190,11l-200 -21zm242 -401l-42 295c42,11 63,0 74,-31l21 -221c10,-21 0,-32 -32,-43l-21 0 0 0zm811 654l-347 -137 316 -801 347 127 -42 105 -168 -63 -85 221 148 53 -32 105 -158 -63 -105 284 168 63 -42 106 0 0zm601 463l-148 -126 137 -337 -221 263 -137 -116 569 -653 137 116 -200 232 189 -127c53,-32 105,-32 158,11 21,21 42,42 53,63l-74 84c-21,-21 -53,-21 -95,0l-179 116 -189 474 0 0zm137 -53l453 -326c94,-63 179,-32 263,84 84,116 84,211 -11,274l-453 326c-42,22 -84,32 -126,11 -53,-11 -95,-53 -126,-105 -85,-116 -85,-200 0,-264zm137 211l484 -348c11,-10 11,-21 0,-42 -10,-10 -21,-21 -42,-10l-474 347c-21,11 -21,21 -11,42 11,11 32,22 43,11zm242 895l-53 -158 464 -158 -495 64 -43 -127 432 -263 -463 158 -53 -137 822 -285 84 232 -400 232 453 -74 73 243 -821 273 0 0zm758 769l0 -84 -748 -21 0 -169 759 21 0 -179 -759 -21 11 -168 758 10 0 -84 106 0 -11 706 -116 -11 0 0zm-927 506l53 -179 716 242 21 -53 -611 -210c-73,-32 -95,-84 -63,-179 11,-32 32,-74 42,-95l116 31c-10,11 -10,22 -21,43 0,10 0,21 0,31 11,0 21,11 42,21l664 222 -137 410 -822 -284 0 0zm-221 369l190 -316 747 431 -179 316 -94 -52 84 -158 -200 -116 -85 137 -84 -53 74 -137 -263 -147 -95 158 -95 -63 0 0zm-358 389l137 -147 326 168 -252 -242 126 -126 621 600 -115 126 -222 -210 116 200c32,53 21,105 -21,147 -21,32 -53,43 -63,64l-84 -85c21,-21 21,-52 0,-94l-106 -190 -463 -211 0 0zm-74 727l148 -95 84 137c10,11 21,21 42,11 11,-11 21,-21 11,-32l-327 -505c-11,-22 -21,-22 -32,-11 -21,11 -21,21 -10,32l116 189 -148 84 -116 -179c-31,-42 -31,-73 -10,-115 21,-43 53,-85 95,-106 126,-84 221,-74 274,11l305 463c53,95 21,190 -95,264 -116,73 -200,63 -253,-22l-84 -126 0 0zm-979 -232l189 -63 274 822 -179 63 -284 -822zm632 -210l273 821 -179 53 -94 -295c-95,21 -158,42 -201,32 -31,0 -63,-43 -84,-106l-84 -221c-11,-63 -11,-105 21,-137 21,-31 74,-63 158,-84l190 -63 0 0zm-43 453l-94 -285c-43,21 -53,42 -43,63l64 211c10,21 31,32 52,21l21 -10 0 0z"/>
   <path class="fil1" d="M3013 5151c-1180,0 -2139,-959 -2139,-2138 0,-1180 959,-2128 2139,-2128 1179,0 2127,948 2127,2128 0,1179 -948,2138 -2127,2138z"/>
   <path class="fil2" d="M2212 1759c-295,232 -432,811 53,1085 -200,263 -474,600 -464,959 11,168 253,537 348,221 95,84 0,137 0,231 -11,190 116,390 305,422l-31 95c-11,252 326,31 410,10 -10,74 -52,158 -10,232 116,211 600,32 695,-137l32 -200c63,-169 221,-242 221,-453 53,-263 -126,-464 -221,-706 -21,-116 -21,-316 0,-432 10,-105 242,-179 316,-263 200,-232 126,-516 21,-779 316,-22 400,-422 274,-664 -211,-411 -969,-442 -980,105 -74,-10 -137,-10 -200,-10 0,-106 32,-211 -11,-306 -168,-400 -737,-168 -884,116 -85,158 -53,390 126,474l0 0zm-232 2244l-21 10 42 84 -21 -94 0 0zm127 10l-32 -10 -21 116 53 -106zm-63 -10l-32 0 10 94 21 -94 1 0zm1179 126l-21 -10 -31 73 52 -63zm169 74l-21 -32 -95 63 116 -31 0 0zm-95 -42l-21 -21 -63 73 84 -52zm-801 621l-10 -10 -21 52 31 -42 0 0zm116 42l-10 -21 -63 53 73 -32zm-63 -21l-10 -21 -43 53 53 -32zm400 148l-21 -21 -42 94 63 -73 0 0zm200 73l-21 -31 -105 74 126 -43 0 0zm-105 -42l-21 -21 -74 95 95 -74 0 0zm200 -979c42,0 85,-295 200,-369 11,0 32,-21 32,-32 -158,-21 -232,232 -242,369 0,21 0,32 10,32zm-842 -2244c10,11 0,21 0,32 -495,116 -506,937 10,1042 -242,517 -347,1012 21,1507 84,116 179,221 285,316 31,21 94,84 137,63 52,-32 31,-253 52,-316l127 -211c10,-95 -85,-242 -116,-347 -74,-264 -53,-538 95,-759 73,-116 179,-210 316,-189l189 21c148,-11 285,-127 337,-253 127,-253 -31,-495 -147,-716 73,0 137,10 200,0 168,-11 221,-158 221,-306 0,-263 -200,-442 -453,-474 -147,-21 -379,21 -411,211 -10,84 11,179 42,263 -84,-42 -179,-74 -284,-84l-147 -21c-32,-32 10,-105 21,-148 21,-147 -32,-316 -211,-326 -179,-21 -369,42 -485,189 -105,127 -136,338 32,443l169 63 0 0z"/>
   <path class="fil3" d="M3244 4003c42,0 85,-295 200,-369 11,0 32,-21 32,-32 -158,-21 -232,232 -242,369 0,21 0,32 10,32z"/>
   <polygon class="fil3" points="3044,4982 3023,4961 2949,5056 "/>
   <polygon class="fil3" points="3149,5024 3128,4993 3023,5067 "/>
   <polygon class="fil3" points="2949,4951 2928,4930 2886,5024 "/>
   <polygon class="fil3" points="2549,4803 2539,4782 2496,4835 "/>
   <polygon class="fil3" points="2612,4824 2602,4803 2539,4856 "/>
   <polygon class="fil3" points="2496,4782 2486,4772 2465,4824 "/>
   <polygon class="fil3" points="3297,4161 3276,4140 3213,4213 "/>
   <polygon class="fil3" points="3392,4203 3371,4171 3276,4234 "/>
   <polygon class="fil3" points="3223,4129 3202,4119 3171,4192 "/>
   <polygon class="fil3" points="2044,4003 2012,4003 2022,4097 "/>
   <polygon class="fil3" points="2107,4013 2075,4003 2054,4119 "/>
   <path class="fil3" d="M2402 1759c10,11 0,21 0,32 -495,116 -506,937 10,1042 -242,517 -347,1012 21,1507 84,116 179,221 285,316 31,21 94,84 137,63 52,-32 31,-253 52,-316l127 -211c10,-95 -85,-242 -116,-347 -74,-264 -53,-538 95,-759 73,-116 179,-210 316,-189l189 21c148,-11 285,-127 337,-253 127,-253 -31,-495 -147,-716 73,0 137,10 200,0 168,-11 221,-158 221,-306 0,-263 -200,-442 -453,-474 -147,-21 -379,21 -411,211 -10,84 11,179 42,263 -84,-42 -179,-74 -284,-84l-147 -21c-32,-32 10,-105 21,-148 21,-147 -32,-316 -211,-326 -179,-21 -369,42 -485,189 -105,127 -136,338 32,443l169 63 0 0zm63 -53c-42,-84 -158,-147 -169,-252 -10,-169 232,-316 379,-222 53,32 85,85 85,148 0,31 -42,116 0,137 63,42 105,-84 105,-127 42,-189 -116,-337 -305,-316 -169,21 -306,148 -369,306 -74,168 84,379 274,326l0 0zm1053 -495l0 0c-116,32 -189,127 -189,243 0,52 0,137 63,147 63,11 52,-126 63,-158 63,-116 200,-116 305,-63 127,74 211,232 116,358 -42,84 -95,105 -137,147 -10,53 85,53 116,43 211,-21 264,-232 190,-411 -84,-211 -295,-369 -527,-306l0 0zm-906 2297l0 0c158,-201 190,-474 443,-611 189,-106 495,31 632,-137 158,-190 126,-590 -169,-622 11,-63 21,-84 0,-189 -105,-253 -505,-348 -748,-295 -158,31 -242,105 -274,231 0,11 0,53 -21,95 -94,-10 -263,42 -326,158 -95,169 -63,411 84,538l211 136 10 243c21,158 63,316 158,453l0 0z"/>
   <path class="fil4" d="M2402 1759c10,11 0,21 0,32 -495,116 -506,937 10,1042 -242,517 -347,1012 21,1507 84,116 179,221 285,316 31,21 94,84 137,63 52,-32 31,-253 52,-316l127 -211c10,-95 -85,-242 -116,-347 -74,-264 -53,-538 95,-759 73,-116 179,-210 316,-189l189 21c148,-11 285,-127 337,-253 127,-253 -31,-495 -147,-716 73,0 137,10 200,0 168,-11 221,-158 221,-306 0,-263 -200,-442 -453,-474 -147,-21 -379,21 -411,211 -10,84 11,179 42,263 -84,-42 -179,-74 -284,-84l-147 -21c-32,-32 10,-105 21,-148 21,-147 -32,-316 -211,-326 -179,-21 -369,42 -485,189 -105,127 -136,338 32,443l169 63 0 0zm63 -53c-42,-84 -158,-147 -169,-252 -10,-169 232,-316 379,-222 53,32 85,85 85,148 0,31 -42,116 0,137 63,42 105,-84 105,-127 42,-189 -116,-337 -305,-316 -169,21 -306,148 -369,306 -74,168 84,379 274,326l0 0zm1053 -495l0 0c-116,32 -189,127 -189,243 0,52 0,137 63,147 63,11 52,-126 63,-158 63,-116 200,-116 305,-63 127,74 211,232 116,358 -42,84 -95,105 -137,147 -10,53 85,53 116,43 211,-21 264,-232 190,-411 -84,-211 -295,-369 -527,-306l0 0zm-906 2297l0 0c158,-201 190,-474 443,-611 189,-106 495,31 632,-137 158,-190 126,-590 -169,-622 11,-63 21,-84 0,-189 -105,-253 -505,-348 -748,-295 -158,31 -242,105 -274,231 0,11 0,53 -21,95 -94,-10 -263,42 -326,158 -95,169 -63,411 84,538l211 136 10 243c21,158 63,316 158,453l0 0z"/>
   <path class="fil2" d="M2612 3508l0 0c158,-201 190,-474 443,-611 189,-106 495,31 632,-137 158,-190 126,-590 -169,-622 11,-63 21,-84 0,-189 -105,-253 -505,-348 -748,-295 -158,31 -242,105 -274,231 0,11 0,53 -21,95 -94,-10 -263,42 -326,158 -95,169 -63,411 84,538l211 136 10 243c21,158 63,316 158,453l0 0z"/>
   <path class="fil2" d="M3518 1211l0 0c-116,32 -189,127 -189,243 0,52 0,137 63,147 63,11 52,-126 63,-158 63,-116 200,-116 305,-63 127,74 211,232 116,358 -42,84 -95,105 -137,147 -10,53 85,53 116,43 211,-21 264,-232 190,-411 -84,-211 -295,-369 -527,-306l0 0z"/>
   <path class="fil5" d="M2834 2107l0 0c-211,42 -338,274 -169,442 105,95 253,126 390,95 210,-53 316,-285 158,-453 -95,-95 -253,-116 -379,-84z"/>
   <path class="fil5" d="M3139 2107l0 0 32 0c52,-85 94,-74 137,21l31 0c42,-190 -232,-200 -200,-21l0 0z"/>
   <path class="fil5" d="M2739 2033c31,-95 95,-95 126,0l53 0c-11,-263 -306,-84 -179,0z"/>
   <path class="fil2" d="M2465 1706c-42,-84 -158,-147 -169,-252 -10,-169 232,-316 379,-222 53,32 85,85 85,148 0,31 -42,116 0,137 63,42 105,-84 105,-127 42,-189 -116,-337 -305,-316 -169,21 -306,148 -369,306 -74,168 84,379 274,326l0 0z"/>
   <path class="fil4" d="M2739 2033c31,-95 95,-95 126,0l53 0c-11,-263 -306,-84 -179,0zm400 74l0 0 32 0c52,-85 94,-74 137,21l31 0c42,-190 -232,-200 -200,-21l0 0zm-305 0l0 0c-211,42 -338,274 -169,442 105,95 253,126 390,95 210,-53 316,-285 158,-453 -95,-95 -253,-116 -379,-84z"/>
   <path class="fil5" d="M2876 2128c-95,73 126,189 200,116 84,-95 -137,-169 -200,-116zm305 126l0 0c-84,21 -84,148 -232,116 -84,-21 -137,-84 -179,-169 -73,22 -10,158 21,190 137,148 443,95 390,-137l0 0z"/>
   <path class="fil4" d="M3244 4003c42,0 85,-295 200,-369 11,0 32,-21 32,-32 -158,-21 -232,232 -242,369 0,21 0,32 10,32z"/>
   <polygon class="fil6" points="3044,4982 3023,4961 2949,5056 "/>
   <polygon class="fil6" points="3149,5024 3128,4993 3023,5067 "/>
   <polygon class="fil6" points="2949,4951 2928,4930 2886,5024 "/>
   <polygon class="fil6" points="2549,4803 2539,4782 2496,4835 "/>
   <polygon class="fil6" points="2612,4824 2602,4803 2539,4856 "/>
   <polygon class="fil6" points="2496,4782 2486,4772 2465,4824 "/>
   <polygon class="fil6" points="3297,4161 3276,4140 3213,4213 "/>
   <polygon class="fil6" points="3392,4203 3371,4171 3276,4234 "/>
   <polygon class="fil6" points="3223,4129 3202,4119 3171,4192 "/>
   <polygon class="fil6" points="2044,4003 2012,4003 2022,4097 "/>
   <polygon class="fil6" points="2107,4013 2075,4003 2054,4119 "/>
   <path class="fil7" d="M2381 3897l0 137 -74 0 0 -347 74 0c31,0 63,0 73,10 11,0 21,21 21,42l0 106c0,21 0,31 -21,42 -10,10 -31,10 -73,10zm21 -63l0 -84c0,-11 -11,-21 -21,-21l0 126c10,0 21,-10 21,-21l0 0z"/>
   <path id="_1" class="fil7" d="M2496 4034l0 -347 137 0 0 42 -63 0 0 84c32,0 63,0 74,11 10,0 21,21 21,52l0 95c0,21 0,32 -21,42 -11,11 -32,21 -74,21l-74 0zm95 -73l0 -85c0,-10 -10,-21 -21,-21l0 0 0 127c11,0 21,-11 21,-21l0 0z"/>
   <path id="_2" class="fil7" d="M2876 4034l-74 0 -42 -147 0 147 -74 0 0 -347 74 0 0 116 21 -85c10,-31 21,-42 52,-42 11,0 22,0 32,11l0 42c-10,0 -21,10 -32,21l-21 84 64 200 0 0z"/>
   <polygon class="fil6" points="1980,4003 1959,4013 2001,4097 "/>
   <g>
    <path class="fil5" d="M1991 3476c10,-11 53,-21 53,-53 -11,-10 -22,-21 -32,-21 -11,0 -21,11 -32,0 11,-10 42,-21 42,-52 11,-11 0,-11 0,-21 21,-11 43,-11 43,-32 -11,-21 -32,-21 -43,-32 21,-10 64,0 85,-42 21,-42 -32,-31 -42,-52 10,-22 94,-74 52,-116 -21,-11 -42,-11 -63,0 -42,21 -42,42 -63,52 0,-10 0,-10 -11,-21 0,-10 -10,-10 -21,-21 21,-10 32,-10 42,-21l0 -10c0,-11 0,-11 0,-21 0,0 -10,0 -10,0 -11,-11 -21,0 -21,-11 0,-10 21,-10 42,-10 10,-11 32,-11 32,-32 21,-42 -43,-32 -43,-53 0,-10 11,-10 21,-21 22,-21 53,-52 22,-74 -22,-21 -64,-21 -85,11 -10,11 -21,32 -31,11 -11,-11 -11,-22 -21,-32 -43,-21 -85,32 -64,74 0,10 11,21 11,31 -11,11 -21,0 -32,0 -21,-10 -31,0 -42,0 0,-10 32,-31 21,-52 -10,-21 -42,0 -42,-11 0,-10 0,0 0,-10 11,-11 42,-22 42,-64 0,-21 0,-31 -21,-31 -21,0 -31,10 -42,10 -11,-10 0,-10 0,-21 21,-21 21,-53 11,-74 -22,-21 -64,0 -74,21 -11,11 -21,32 -32,11 -10,-11 -21,-32 -31,-32 -21,-10 -43,-10 -64,11 -31,21 -10,63 11,84 10,11 21,11 21,21 -11,21 -53,11 -53,42 0,32 32,32 32,43 10,0 10,0 10,0 -10,10 -10,10 -21,0 -10,0 -10,0 -21,0 0,-11 0,-11 -10,-22 -11,0 -11,11 -21,0 10,-10 31,-21 31,-42 -10,-21 -31,0 -42,0 0,-21 32,-21 21,-52 0,-11 -10,-11 -21,-11 -10,0 -21,11 -31,11 0,0 0,-32 0,-53 -11,-42 -64,-11 -74,21 0,11 10,21 0,32 -11,10 -11,0 -32,0 -10,0 -21,21 -21,31 -10,32 42,32 42,42 -10,11 -21,0 -31,21 -11,22 31,43 52,32 0,0 11,0 11,0 0,11 -21,21 0,42 10,11 0,21 -21,11 -21,-21 -32,-11 -42,21 0,0 0,0 -11,10 -21,-10 -52,-42 -84,-10 -11,10 -11,31 0,42 21,10 32,10 42,21 -10,11 -32,21 -32,42 11,32 43,11 43,32 -11,21 -32,-11 -64,10l-10 11c-11,-11 10,-32 -11,-42 -10,-11 -31,31 -31,10 0,-10 10,-31 -21,-31 -11,0 -11,10 -21,21 0,10 0,0 0,10 -11,-10 -11,-42 -32,-42 -32,0 -32,32 -32,42 -10,0 -10,0 -21,-10 -42,-32 -94,0 -73,42 21,21 42,10 42,21 -11,10 -21,10 -21,31 -21,32 31,43 52,22 11,-11 11,-11 11,-11 21,-11 10,11 10,21 0,32 53,11 64,-10 21,-43 0,42 52,10 11,-10 11,-42 32,-53 10,21 21,32 42,32 11,0 11,0 21,11 -21,10 -42,10 -42,31 -11,11 0,11 -11,11 -10,10 -42,-21 -52,0 0,10 0,10 0,21 -11,0 -21,-11 -42,0 -32,10 21,31 -11,31 0,0 0,0 -10,0 -21,11 -43,32 -21,42 10,0 21,0 31,11 -10,11 -31,32 -10,53 21,10 42,-42 52,-42 11,0 0,0 21,10 32,-21 11,-21 11,-42 10,0 21,10 31,10 11,-10 11,-21 0,-42 11,0 11,11 22,0 0,-10 0,-10 0,-21 10,-10 31,0 42,0 21,-10 21,-10 21,0 0,11 -11,0 -21,11 0,10 0,10 10,21 -21,10 -31,-11 -52,0 -22,10 -11,31 0,31 0,0 0,0 0,11 10,11 -11,11 -22,21 -10,21 -10,53 43,21 0,11 0,21 10,42 0,11 11,11 11,32 -11,10 -11,10 -32,10 -84,11 -116,137 11,106 10,0 42,-21 63,-11 0,11 -11,21 -11,42 11,42 74,32 95,-21 0,0 11,0 11,-10 0,0 0,0 0,0 10,-11 10,21 10,31 0,11 11,21 32,21 21,-10 42,-31 42,-52 0,0 0,0 0,0 10,-32 21,10 32,21 31,21 42,-42 52,-42 0,-11 21,-21 32,-32 10,21 -21,21 -32,53 0,10 21,21 32,21 0,0 10,0 10,10 0,0 0,0 -10,0 0,0 0,0 0,0 -21,0 -32,-10 -53,0 -10,11 -10,21 -10,32 0,10 10,10 21,21 -11,10 -21,10 -32,32 -10,0 -10,21 0,31 21,32 63,-21 74,-21 10,0 0,11 10,21 11,21 42,-10 42,-31 0,0 0,0 0,-11l11 11c0,0 10,10 21,10 11,0 11,-10 11,-21 10,0 0,-10 10,-21 0,11 0,11 11,11 10,0 10,0 21,0 21,-11 21,0 31,0 32,10 42,31 63,42 22,0 116,-64 116,-64 0,-21 -10,-42 -10,-63 10,-42 42,-31 52,-52 11,-11 11,-21 0,-21 -21,-11 -31,0 -31,-11l0 0z"/>
    <path class="fil5" d="M1980 3634c-10,11 -31,21 -52,32l-43 21c0,0 -10,10 -10,10l0 0c0,32 74,148 95,169 10,0 95,-53 116,-63 0,-22 -53,-116 -74,-137 -11,-11 -21,-21 -32,-32z"/>
    <path class="fil5" d="M2086 3813l-106 63c0,11 0,11 0,21 11,32 21,53 42,74l137 -84c-10,-21 -52,-74 -73,-74z"/>
   </g>
  </g>
 </g>
</svg>
