<?xml version="1.0" encoding="UTF-8"?>
<!DOCTYPE svg PUBLIC "-//W3C//DTD SVG 1.1//EN" "http://www.w3.org/Graphics/SVG/1.1/DTD/svg11.dtd">
<!-- Creator: CorelDRAW X6 -->
<svg xmlns="http://www.w3.org/2000/svg" xml:space="preserve" width="8.6425mm" height="3.1743mm" version="1.1" style="shape-rendering:geometricPrecision; text-rendering:geometricPrecision; image-rendering:optimizeQuality; fill-rule:evenodd; clip-rule:evenodd"
viewBox="0 0 70 26"
 xmlns:xlink="http://www.w3.org/1999/xlink">
 <defs>
   <clipPath id="id0">
    <path d="M19 12c0,1 -1,2 -1,2 -1,1 -1,1 -2,2 0,0 -1,0 -2,1 0,0 -1,0 -2,0 0,0 -1,0 -2,0l-4 0 0 9 -6 0 0 -26 10 0c1,0 3,0 4,0 1,1 2,1 3,2 1,0 1,1 2,2 1,1 1,3 1,4 0,1 0,3 -1,4zm-6 -6c-1,0 -1,0 -2,-1 0,0 -1,0 -1,0 -1,0 -2,0 -3,0l-1 0 0 8 1 0c1,0 1,0 2,0 0,0 1,-1 1,-1 0,0 1,0 1,0 1,0 1,0 1,0 0,-1 1,-1 1,-2 0,0 0,-1 0,-2 0,0 0,-1 0,-2zm21 4c1,0 3,0 4,0 1,0 2,1 3,2 1,0 2,1 2,2 1,1 1,2 1,4 0,1 0,2 -1,3 0,1 -1,2 -2,3 -1,0 -2,1 -3,1 -1,1 -3,1 -4,1l-11 0 0 -26 19 0 0 5 -12 0 0 5 4 0zm-4 11l3 0c1,0 2,0 3,-1 1,0 1,-1 1,-2 0,-1 0,-1 0,-1 0,-1 0,-1 -1,-2 0,0 0,0 -1,0 0,0 -1,-1 -2,-1l-3 0 0 7zm35 -15c0,1 -1,2 -1,3 -1,1 -1,2 -2,2 0,1 0,1 -1,2l9 13 -8 0 -6 -11 -2 0 0 11 -6 0 0 -26 6 0 0 11c1,-1 2,-1 2,-1 1,-1 1,-1 2,-3 0,0 0,-1 1,-1 0,-1 0,-1 0,-2 1,-1 2,-2 3,-3 1,-1 3,-1 4,-1 1,0 1,0 2,0 0,0 1,0 1,0l0 6 -2 0c-1,0 -1,0 -2,0z"/>
   </clipPath>
 </defs>
 <g id="Слой_x0020_1">
  <metadata id="CorelCorpID_0Corel-Layer"/>
  <g style="clip-path:url(#id0)">
   <image x="-351" y="326" width="860" height="848" xlink:href="logo2_Images\logo2_ImgID1.png"/>
  </g>
 </g>
</svg>
